<mxfile host="app.diagrams.net" agent="Mozilla/5.0 (X11; Linux x86_64) AppleWebKit/537.36 (KHTML, like Gecko) Chrome/131.0.0.0 Safari/537.36" version="26.0.1">
  <diagram id="C5RBs43oDa-KdzZeNtuy" name="Page-1">
    <mxGraphModel grid="1" page="1" gridSize="10" guides="1" tooltips="1" connect="1" arrows="1" fold="1" pageScale="1" pageWidth="827" pageHeight="1169" math="0" shadow="0">
      <root>
        <mxCell id="WIyWlLk6GJQsqaUBKTNV-0" />
        <mxCell id="WIyWlLk6GJQsqaUBKTNV-1" parent="WIyWlLk6GJQsqaUBKTNV-0" />
        <mxCell id="WIyWlLk6GJQsqaUBKTNV-2" value="" style="rounded=0;html=1;jettySize=auto;orthogonalLoop=1;fontSize=11;endArrow=block;endFill=0;endSize=8;strokeWidth=1;shadow=0;labelBackgroundColor=none;edgeStyle=orthogonalEdgeStyle;" edge="1" parent="WIyWlLk6GJQsqaUBKTNV-1" source="WIyWlLk6GJQsqaUBKTNV-7" target="WIyWlLk6GJQsqaUBKTNV-6">
          <mxGeometry relative="1" as="geometry" />
        </mxCell>
        <mxCell id="WIyWlLk6GJQsqaUBKTNV-3" value="Създаване на сокет" style="rounded=1;whiteSpace=wrap;html=1;fontSize=12;glass=0;strokeWidth=1;shadow=0;" vertex="1" parent="WIyWlLk6GJQsqaUBKTNV-1">
          <mxGeometry x="160" y="80" width="120" height="40" as="geometry" />
        </mxCell>
        <mxCell id="WIyWlLk6GJQsqaUBKTNV-4" value="No&lt;div&gt;&lt;br&gt;&lt;/div&gt;" style="rounded=0;html=1;jettySize=auto;orthogonalLoop=1;fontSize=11;endArrow=block;endFill=0;endSize=8;strokeWidth=1;shadow=0;labelBackgroundColor=none;edgeStyle=orthogonalEdgeStyle;" edge="1" parent="WIyWlLk6GJQsqaUBKTNV-1" source="WIyWlLk6GJQsqaUBKTNV-6">
          <mxGeometry y="20" relative="1" as="geometry">
            <mxPoint as="offset" />
            <mxPoint x="220" y="585" as="targetPoint" />
          </mxGeometry>
        </mxCell>
        <mxCell id="x7K1J9MhWQF9T0ArzZxB-9" value="yes" style="edgeStyle=orthogonalEdgeStyle;rounded=0;orthogonalLoop=1;jettySize=auto;html=1;exitX=1;exitY=0.5;exitDx=0;exitDy=0;entryX=0.5;entryY=1;entryDx=0;entryDy=0;" edge="1" parent="WIyWlLk6GJQsqaUBKTNV-1" source="WIyWlLk6GJQsqaUBKTNV-6" target="x7K1J9MhWQF9T0ArzZxB-7">
          <mxGeometry relative="1" as="geometry">
            <mxPoint x="350" y="465" as="targetPoint" />
          </mxGeometry>
        </mxCell>
        <mxCell id="WIyWlLk6GJQsqaUBKTNV-6" value="bind() == -1" style="rhombus;whiteSpace=wrap;html=1;shadow=0;fontFamily=Helvetica;fontSize=12;align=center;strokeWidth=1;spacing=6;spacingTop=-4;" vertex="1" parent="WIyWlLk6GJQsqaUBKTNV-1">
          <mxGeometry x="170" y="425" width="100" height="80" as="geometry" />
        </mxCell>
        <mxCell id="x7K1J9MhWQF9T0ArzZxB-15" style="edgeStyle=orthogonalEdgeStyle;rounded=0;orthogonalLoop=1;jettySize=auto;html=1;exitX=0.5;exitY=1;exitDx=0;exitDy=0;entryX=0.417;entryY=0;entryDx=0;entryDy=0;entryPerimeter=0;" edge="1" parent="WIyWlLk6GJQsqaUBKTNV-1" source="WIyWlLk6GJQsqaUBKTNV-11" target="x7K1J9MhWQF9T0ArzZxB-16">
          <mxGeometry relative="1" as="geometry">
            <mxPoint x="220" y="920" as="targetPoint" />
            <Array as="points">
              <mxPoint x="220" y="880" />
            </Array>
          </mxGeometry>
        </mxCell>
        <mxCell id="WIyWlLk6GJQsqaUBKTNV-11" value="Създаваме масив от файл. деск.&amp;nbsp;&lt;br&gt;fds[3]" style="rounded=1;whiteSpace=wrap;html=1;fontSize=12;glass=0;strokeWidth=1;shadow=0;" vertex="1" parent="WIyWlLk6GJQsqaUBKTNV-1">
          <mxGeometry x="160" y="760" width="120" height="60" as="geometry" />
        </mxCell>
        <mxCell id="x7K1J9MhWQF9T0ArzZxB-0" value="No" style="rounded=0;html=1;jettySize=auto;orthogonalLoop=1;fontSize=11;endArrow=block;endFill=0;endSize=8;strokeWidth=1;shadow=0;labelBackgroundColor=none;edgeStyle=orthogonalEdgeStyle;" edge="1" parent="WIyWlLk6GJQsqaUBKTNV-1" source="x7K1J9MhWQF9T0ArzZxB-1" target="WIyWlLk6GJQsqaUBKTNV-7">
          <mxGeometry relative="1" as="geometry">
            <mxPoint x="220" y="120" as="sourcePoint" />
            <mxPoint x="170" y="370" as="targetPoint" />
          </mxGeometry>
        </mxCell>
        <mxCell id="WIyWlLk6GJQsqaUBKTNV-7" value="Създаване на адресна структура" style="rounded=1;whiteSpace=wrap;html=1;fontSize=12;glass=0;strokeWidth=1;shadow=0;" vertex="1" parent="WIyWlLk6GJQsqaUBKTNV-1">
          <mxGeometry x="160" y="310" width="120" height="40" as="geometry" />
        </mxCell>
        <mxCell id="x7K1J9MhWQF9T0ArzZxB-2" value="" style="rounded=0;html=1;jettySize=auto;orthogonalLoop=1;fontSize=11;endArrow=block;endFill=0;endSize=8;strokeWidth=1;shadow=0;labelBackgroundColor=none;edgeStyle=orthogonalEdgeStyle;" edge="1" parent="WIyWlLk6GJQsqaUBKTNV-1" source="WIyWlLk6GJQsqaUBKTNV-3" target="x7K1J9MhWQF9T0ArzZxB-1">
          <mxGeometry relative="1" as="geometry">
            <mxPoint x="220" y="120" as="sourcePoint" />
            <mxPoint x="240" y="250" as="targetPoint" />
          </mxGeometry>
        </mxCell>
        <mxCell id="x7K1J9MhWQF9T0ArzZxB-4" value="Yes" style="edgeStyle=orthogonalEdgeStyle;rounded=0;orthogonalLoop=1;jettySize=auto;html=1;exitX=1;exitY=0.5;exitDx=0;exitDy=0;" edge="1" parent="WIyWlLk6GJQsqaUBKTNV-1" source="x7K1J9MhWQF9T0ArzZxB-1">
          <mxGeometry relative="1" as="geometry">
            <mxPoint x="320" y="200" as="targetPoint" />
          </mxGeometry>
        </mxCell>
        <mxCell id="x7K1J9MhWQF9T0ArzZxB-1" value="socket() &amp;lt; 0" style="rhombus;whiteSpace=wrap;html=1;" vertex="1" parent="WIyWlLk6GJQsqaUBKTNV-1">
          <mxGeometry x="180" y="160" width="80" height="80" as="geometry" />
        </mxCell>
        <mxCell id="x7K1J9MhWQF9T0ArzZxB-7" value="return 1" style="ellipse;whiteSpace=wrap;html=1;" vertex="1" parent="WIyWlLk6GJQsqaUBKTNV-1">
          <mxGeometry x="320" y="160" width="120" height="80" as="geometry" />
        </mxCell>
        <mxCell id="x7K1J9MhWQF9T0ArzZxB-13" style="edgeStyle=orthogonalEdgeStyle;rounded=0;orthogonalLoop=1;jettySize=auto;html=1;exitX=0.5;exitY=1;exitDx=0;exitDy=0;entryX=0.5;entryY=0;entryDx=0;entryDy=0;" edge="1" parent="WIyWlLk6GJQsqaUBKTNV-1" source="x7K1J9MhWQF9T0ArzZxB-11" target="x7K1J9MhWQF9T0ArzZxB-12">
          <mxGeometry relative="1" as="geometry" />
        </mxCell>
        <mxCell id="x7K1J9MhWQF9T0ArzZxB-11" value="Извикваме listen()" style="rounded=1;whiteSpace=wrap;html=1;" vertex="1" parent="WIyWlLk6GJQsqaUBKTNV-1">
          <mxGeometry x="160" y="585" width="120" height="45" as="geometry" />
        </mxCell>
        <mxCell id="x7K1J9MhWQF9T0ArzZxB-14" style="edgeStyle=orthogonalEdgeStyle;rounded=0;orthogonalLoop=1;jettySize=auto;html=1;exitX=0.5;exitY=1;exitDx=0;exitDy=0;entryX=0.5;entryY=0;entryDx=0;entryDy=0;" edge="1" parent="WIyWlLk6GJQsqaUBKTNV-1" source="x7K1J9MhWQF9T0ArzZxB-12" target="WIyWlLk6GJQsqaUBKTNV-11">
          <mxGeometry relative="1" as="geometry" />
        </mxCell>
        <mxCell id="x7K1J9MhWQF9T0ArzZxB-20" style="edgeStyle=orthogonalEdgeStyle;rounded=0;orthogonalLoop=1;jettySize=auto;html=1;exitX=0.5;exitY=1;exitDx=0;exitDy=0;" edge="1" parent="WIyWlLk6GJQsqaUBKTNV-1" source="x7K1J9MhWQF9T0ArzZxB-12">
          <mxGeometry relative="1" as="geometry">
            <mxPoint x="220" y="760" as="targetPoint" />
          </mxGeometry>
        </mxCell>
        <mxCell id="x7K1J9MhWQF9T0ArzZxB-12" value="int clientfd = accept" style="rounded=1;whiteSpace=wrap;html=1;" vertex="1" parent="WIyWlLk6GJQsqaUBKTNV-1">
          <mxGeometry x="160" y="670" width="120" height="50" as="geometry" />
        </mxCell>
        <mxCell id="x7K1J9MhWQF9T0ArzZxB-19" style="edgeStyle=orthogonalEdgeStyle;rounded=0;orthogonalLoop=1;jettySize=auto;html=1;exitX=0.5;exitY=1;exitDx=0;exitDy=0;entryX=0.5;entryY=0;entryDx=0;entryDy=0;" edge="1" parent="WIyWlLk6GJQsqaUBKTNV-1" source="x7K1J9MhWQF9T0ArzZxB-16" target="x7K1J9MhWQF9T0ArzZxB-18">
          <mxGeometry relative="1" as="geometry" />
        </mxCell>
        <mxCell id="x7K1J9MhWQF9T0ArzZxB-16" value="char buffer[256]" style="rounded=1;whiteSpace=wrap;html=1;" vertex="1" parent="WIyWlLk6GJQsqaUBKTNV-1">
          <mxGeometry x="170" y="880" width="120" height="60" as="geometry" />
        </mxCell>
        <mxCell id="x7K1J9MhWQF9T0ArzZxB-22" style="edgeStyle=orthogonalEdgeStyle;rounded=0;orthogonalLoop=1;jettySize=auto;html=1;exitX=0.5;exitY=1;exitDx=0;exitDy=0;" edge="1" parent="WIyWlLk6GJQsqaUBKTNV-1" source="x7K1J9MhWQF9T0ArzZxB-18">
          <mxGeometry relative="1" as="geometry">
            <mxPoint x="230" y="1070" as="targetPoint" />
          </mxGeometry>
        </mxCell>
        <mxCell id="x7K1J9MhWQF9T0ArzZxB-18" value="poll(fds, 2, 50000);" style="rounded=1;whiteSpace=wrap;html=1;" vertex="1" parent="WIyWlLk6GJQsqaUBKTNV-1">
          <mxGeometry x="170" y="970" width="120" height="60" as="geometry" />
        </mxCell>
        <mxCell id="x7K1J9MhWQF9T0ArzZxB-24" style="edgeStyle=orthogonalEdgeStyle;rounded=0;orthogonalLoop=1;jettySize=auto;html=1;exitX=0.5;exitY=1;exitDx=0;exitDy=0;" edge="1" parent="WIyWlLk6GJQsqaUBKTNV-1" source="x7K1J9MhWQF9T0ArzZxB-23">
          <mxGeometry relative="1" as="geometry">
            <mxPoint x="230" y="1230" as="targetPoint" />
          </mxGeometry>
        </mxCell>
        <mxCell id="x7K1J9MhWQF9T0ArzZxB-29" value="No&lt;div&gt;&lt;br&gt;&lt;/div&gt;" style="edgeStyle=orthogonalEdgeStyle;rounded=0;orthogonalLoop=1;jettySize=auto;html=1;exitX=1;exitY=0.5;exitDx=0;exitDy=0;" edge="1" parent="WIyWlLk6GJQsqaUBKTNV-1" source="x7K1J9MhWQF9T0ArzZxB-23">
          <mxGeometry relative="1" as="geometry">
            <mxPoint x="360" y="1135" as="targetPoint" />
          </mxGeometry>
        </mxCell>
        <mxCell id="x7K1J9MhWQF9T0ArzZxB-23" value="Ако първият файл. деск. съдържа POLLIN" style="rhombus;whiteSpace=wrap;html=1;" vertex="1" parent="WIyWlLk6GJQsqaUBKTNV-1">
          <mxGeometry x="150" y="1070" width="160" height="130" as="geometry" />
        </mxCell>
        <mxCell id="x7K1J9MhWQF9T0ArzZxB-28" style="edgeStyle=orthogonalEdgeStyle;rounded=0;orthogonalLoop=1;jettySize=auto;html=1;exitX=0.5;exitY=1;exitDx=0;exitDy=0;entryX=0.5;entryY=0;entryDx=0;entryDy=0;" edge="1" parent="WIyWlLk6GJQsqaUBKTNV-1" source="x7K1J9MhWQF9T0ArzZxB-25" target="x7K1J9MhWQF9T0ArzZxB-26">
          <mxGeometry relative="1" as="geometry" />
        </mxCell>
        <mxCell id="x7K1J9MhWQF9T0ArzZxB-30" value="Yes" style="edgeStyle=orthogonalEdgeStyle;rounded=0;orthogonalLoop=1;jettySize=auto;html=1;" edge="1" parent="WIyWlLk6GJQsqaUBKTNV-1" source="x7K1J9MhWQF9T0ArzZxB-25" target="x7K1J9MhWQF9T0ArzZxB-23">
          <mxGeometry relative="1" as="geometry" />
        </mxCell>
        <mxCell id="x7K1J9MhWQF9T0ArzZxB-25" value="read(0, buffer, 255);" style="rounded=1;whiteSpace=wrap;html=1;" vertex="1" parent="WIyWlLk6GJQsqaUBKTNV-1">
          <mxGeometry x="170" y="1240" width="120" height="60" as="geometry" />
        </mxCell>
        <mxCell id="x7K1J9MhWQF9T0ArzZxB-42" style="edgeStyle=orthogonalEdgeStyle;rounded=0;orthogonalLoop=1;jettySize=auto;html=1;exitX=0;exitY=0.5;exitDx=0;exitDy=0;" edge="1" parent="WIyWlLk6GJQsqaUBKTNV-1" source="x7K1J9MhWQF9T0ArzZxB-26">
          <mxGeometry relative="1" as="geometry">
            <mxPoint x="30" y="860" as="targetPoint" />
          </mxGeometry>
        </mxCell>
        <mxCell id="x7K1J9MhWQF9T0ArzZxB-26" value="send(clientfd, buffer, 255, 0);" style="rounded=1;whiteSpace=wrap;html=1;" vertex="1" parent="WIyWlLk6GJQsqaUBKTNV-1">
          <mxGeometry x="170" y="1330" width="120" height="60" as="geometry" />
        </mxCell>
        <mxCell id="x7K1J9MhWQF9T0ArzZxB-32" value="Yes" style="edgeStyle=orthogonalEdgeStyle;rounded=0;orthogonalLoop=1;jettySize=auto;html=1;exitX=0.5;exitY=1;exitDx=0;exitDy=0;" edge="1" parent="WIyWlLk6GJQsqaUBKTNV-1" source="x7K1J9MhWQF9T0ArzZxB-31">
          <mxGeometry relative="1" as="geometry">
            <mxPoint x="430" y="1240" as="targetPoint" />
          </mxGeometry>
        </mxCell>
        <mxCell id="x7K1J9MhWQF9T0ArzZxB-31" value="Ако втория ..." style="rhombus;whiteSpace=wrap;html=1;" vertex="1" parent="WIyWlLk6GJQsqaUBKTNV-1">
          <mxGeometry x="360" y="1070" width="140" height="130" as="geometry" />
        </mxCell>
        <mxCell id="x7K1J9MhWQF9T0ArzZxB-34" value="Yes" style="edgeStyle=orthogonalEdgeStyle;rounded=0;orthogonalLoop=1;jettySize=auto;html=1;exitX=0.5;exitY=1;exitDx=0;exitDy=0;" edge="1" parent="WIyWlLk6GJQsqaUBKTNV-1" source="x7K1J9MhWQF9T0ArzZxB-33">
          <mxGeometry relative="1" as="geometry">
            <mxPoint x="430" y="1420" as="targetPoint" />
          </mxGeometry>
        </mxCell>
        <mxCell id="x7K1J9MhWQF9T0ArzZxB-36" value="No" style="edgeStyle=orthogonalEdgeStyle;rounded=0;orthogonalLoop=1;jettySize=auto;html=1;exitX=1;exitY=0.5;exitDx=0;exitDy=0;" edge="1" parent="WIyWlLk6GJQsqaUBKTNV-1" source="x7K1J9MhWQF9T0ArzZxB-33">
          <mxGeometry relative="1" as="geometry">
            <mxPoint x="580" y="1300" as="targetPoint" />
          </mxGeometry>
        </mxCell>
        <mxCell id="x7K1J9MhWQF9T0ArzZxB-33" value="Ако сървърът не получава съобщ" style="rhombus;whiteSpace=wrap;html=1;" vertex="1" parent="WIyWlLk6GJQsqaUBKTNV-1">
          <mxGeometry x="360" y="1240" width="140" height="120" as="geometry" />
        </mxCell>
        <mxCell id="x7K1J9MhWQF9T0ArzZxB-35" value="return 0" style="ellipse;whiteSpace=wrap;html=1;" vertex="1" parent="WIyWlLk6GJQsqaUBKTNV-1">
          <mxGeometry x="370" y="1420" width="120" height="80" as="geometry" />
        </mxCell>
        <mxCell id="x7K1J9MhWQF9T0ArzZxB-39" style="edgeStyle=orthogonalEdgeStyle;rounded=0;orthogonalLoop=1;jettySize=auto;html=1;exitX=0.5;exitY=0;exitDx=0;exitDy=0;entryX=0.75;entryY=0;entryDx=0;entryDy=0;" edge="1" parent="WIyWlLk6GJQsqaUBKTNV-1" source="x7K1J9MhWQF9T0ArzZxB-37" target="x7K1J9MhWQF9T0ArzZxB-16">
          <mxGeometry relative="1" as="geometry">
            <Array as="points">
              <mxPoint x="650" y="860" />
              <mxPoint x="220" y="860" />
              <mxPoint x="220" y="880" />
            </Array>
          </mxGeometry>
        </mxCell>
        <mxCell id="x7K1J9MhWQF9T0ArzZxB-37" value="printf(&quot;%s\n&quot;, buffer);" style="rounded=1;whiteSpace=wrap;html=1;" vertex="1" parent="WIyWlLk6GJQsqaUBKTNV-1">
          <mxGeometry x="580" y="1270" width="140" height="60" as="geometry" />
        </mxCell>
        <mxCell id="x7K1J9MhWQF9T0ArzZxB-43" value="" style="endArrow=classic;html=1;rounded=0;" edge="1" parent="WIyWlLk6GJQsqaUBKTNV-1">
          <mxGeometry width="50" height="50" relative="1" as="geometry">
            <mxPoint x="30" y="860" as="sourcePoint" />
            <mxPoint x="220" y="860" as="targetPoint" />
          </mxGeometry>
        </mxCell>
        <mxCell id="x7K1J9MhWQF9T0ArzZxB-45" value="&lt;b&gt;Сървър&lt;/b&gt;" style="text;html=1;whiteSpace=wrap;overflow=hidden;rounded=0;fontSize=28;" vertex="1" parent="WIyWlLk6GJQsqaUBKTNV-1">
          <mxGeometry x="30" y="20" width="180" height="120" as="geometry" />
        </mxCell>
      </root>
    </mxGraphModel>
  </diagram>
</mxfile>
